<svg height="499.312pt" viewBox="0 0 499.312 499.312" width="499.312pt" xmlns="http://www.w3.org/2000/svg"><path d="m43.3125 344 120 120-24 24-128-128 24-24zm0 0" fill="#f9eb8c"/><path d="m190.910156 371.601562-2.078125 2.078126c-21.519531 22-33.519531 51.519531-33.519531 82.320312l-112-112h4.398438c28.160156 0 55.359374-10.078125 76.722656-28.398438l5.679687-4.808593zm0 0" fill="#f2ba70"/><path d="m214.59375 347.28125-23.683594 24.320312-60.796875-60.800781 25.839844-22.160156zm0 0" fill="#f9eb8c"/><path d="m251.3125 272c8.800781 0 16-7.199219 16-16s-7.199219-16-16-16-16 7.199219-16 16 7.199219 16 16 16zm40-64c-4.402344 0-8 3.601562-8 8s3.597656 8 8 8c4.398438 0 8-3.601562 8-8s-3.601562-8-8-8zm16-16c0 4.398438 3.597656 8 8 8 4.398438 0 8-3.601562 8-8s-3.601562-8-8-8c-4.402344 0-8 3.601562-8 8zm-87.28125 80c-8.800781-.398438-16.320312 6.398438-16.71875 15.28125-.402344 8.796875 6.398438 16.320312 15.28125 16.71875 8.796875.398438 16.316406-6.398438 16.71875-15.28125.398438-8.796875-6.402344-16.320312-15.28125-16.71875zm168.480469-102.800781-173.917969 178.082031-58.640625-58.640625 36.800781-31.601563 32.078125-27.519531 43.121094-36.878906 25.839844-22.160156 21.519531-18.480469 30.160156-25.839844zm0 0" fill="#f2ba70"/><path d="m412.273438 144.960938-23.761719 24.238281-43.039063-43.039063 25.839844-22.160156zm0 0" fill="#7c6351"/><path d="m439.953125 116.640625-27.679687 28.320313-40.960938-40.960938 30.160156-25.847656zm0 0" fill="#f2ba70"/><path d="m463.632812 92.320312-23.679687 24.320313-38.480469-38.488281 25.839844-22.152344zm0 0" fill="#7c6351"/><path d="m491.3125 8v56l-27.679688 28.320312-36.320312-36.320312 56-48zm0 0" fill="#fcebdb"/><path d="m224.832031 229.519531-32.078125 27.519531-21.441406-25.039062 30.160156-26.160156 1.839844 2.160156zm0 0" fill="#f2e17c"/><path d="m267.953125 192.640625-43.121094 36.878906-21.519531-21.519531-1.839844-2.160156 42.71875-36.960938zm0 0" fill="#fcebdb"/><path d="m293.792969 170.480469-25.839844 22.160156-23.761719-23.761719 25.679688-22.320312zm0 0" fill="#f2e17c"/><g fill="#fcebdb"><path d="m315.3125 152-21.519531 18.480469-23.921875-23.921875 21.441406-18.558594zm0 0"/><path d="m371.3125 88c0 8.835938-7.164062 16-16 16s-16-7.164062-16-16 7.164062-16 16-16 16 7.164062 16 16zm0 0"/><path d="m427.3125 40c0 8.835938-7.164062 16-16 16s-16-7.164062-16-16 7.164062-16 16-16 16 7.164062 16 16zm0 0"/><path d="m323.3125 192c0 4.417969-3.582031 8-8 8s-8-3.582031-8-8 3.582031-8 8-8 8 3.582031 8 8zm0 0"/><path d="m299.3125 216c0 4.417969-3.582031 8-8 8s-8-3.582031-8-8 3.582031-8 8-8 8 3.582031 8 8zm0 0"/><path d="m267.3125 256c0 8.835938-7.164062 16-16 16s-16-7.164062-16-16 7.164062-16 16-16 16 7.164062 16 16zm0 0"/><path d="m220.03125 272c8.878906.398438 15.679688 7.921875 15.28125 16.71875-.402344 8.882812-7.921875 15.679688-16.71875 15.28125-8.882812-.398438-15.683594-7.921875-15.28125-16.71875.398438-8.882812 7.917969-15.679688 16.71875-15.28125zm0 0"/></g><path d="m499.289062 0h-18.9375l-45.167968 38.710938c-.6875-12.621094-11.078125-22.710938-23.871094-22.710938-13.234375 0-24 10.769531-24 24 0 11.519531 8.160156 21.152344 19 23.457031l-27.136719 23.253907c-.679687-12.621094-11.070312-22.710938-23.863281-22.710938-13.234375 0-24 10.769531-24 24 0 11.519531 8.160156 21.152344 19 23.457031l-34.585938 29.648438-24.023437-24.027344-131.648437 114.089844 21.433593 25-62.289062 53.390625c-19.886719 17.050781-45.277344 26.441406-71.480469 26.441406h-1.09375l-11.3125-11.3125-35.3125 35.3125 139.3125 139.3125 35.3125-35.3125-11.160156-11.160156c.78125-27.664063 11.6875-53.703125 31.109375-73.582032l302.457031-309.664062 2.28125-2.335938zm-95.976562 40c0-4.414062 3.589844-8 8-8 4.40625 0 8 3.585938 8 8s-3.59375 8-8 8c-4.410156 0-8-3.585938-8-8zm-56 48c0-4.414062 3.589844-8 8-8 4.40625 0 8 3.585938 8 8s-3.59375 8-8 8c-4.410156 0-8-3.585938-8-8zm-205.464844 223.214844 13.65625-11.710938 47.855469 47.855469-12.535156 12.832031zm25.839844-22.144532 177.359375-152.015624 32.242187 32.242187-162.753906 166.625zm100.65625-107.351562-12.441406-12.445312 13.59375-11.785157 12.511718 12.511719zm-12.183594 10.441406-30.894531 26.480469-12.226563-12.226563 30.738282-26.636718zm101.070313-65.550781 13.664062-11.714844 30.113281 30.113281-12.542968 12.839844zm25.847656-22.152344 17.96875-15.402343 27.632813 27.625-16.488282 16.878906zm30.152344-25.847656 13.664062-11.714844 25.503907 25.503907-12.535157 12.832031zm-109.6875 72.933594-9.351563 8.015625-12.574218-12.574219 9.304687-8.0625zm-120.976563 81.289062 18.363282-15.910156 12.160156 12.15625-19.449219 16.675781zm-43.253906 243.855469-116.6875-116.6875 12.6875-12.6875 116.6875 116.6875zm-77.570312-125.566406c24.953124-2.808594 48.65625-12.945313 67.875-29.417969l.046874-.039063 50.152344 50.152344c-16.886718 18.695313-27.585937 41.625-31.097656 66.28125zm401.832031-270.167969-24.496094-24.496094 44.21875-37.898437.015625 42.183594zm0 0" fill="#1e1713"/><path d="m267.3125 256c0 8.835938-7.164062 16-16 16s-16-7.164062-16-16 7.164062-16 16-16 16 7.164062 16 16zm0 0" fill="#1e1713"/><path d="m220.0625 272.015625c-8.824219-.414063-16.320312 6.410156-16.734375 15.230469-.417969 8.816406 6.398437 16.3125 15.222656 16.738281 8.824219.414063 16.320313-6.410156 16.738281-15.230469.421876-8.824218-6.402343-16.3125-15.226562-16.738281zm0 0" fill="#1e1713"/><path d="m299.3125 216c0 4.417969-3.582031 8-8 8s-8-3.582031-8-8 3.582031-8 8-8 8 3.582031 8 8zm0 0" fill="#1e1713"/><path d="m323.3125 192c0 4.417969-3.582031 8-8 8s-8-3.582031-8-8 3.582031-8 8-8 8 3.582031 8 8zm0 0" fill="#1e1713"/></svg>